<svg width="624" height="604" viewBox="0 0 624 604" fill="none" xmlns="http://www.w3.org/2000/svg">
<path d="M51.37 41.1802C59.28 31.9902 64.98 20.0302 76.64 14.4102C86.08 9.86022 134.34 0.840216 146.47 0.670216C206.14 -0.179784 264.98 8.37022 324.76 8.81022C392.9 9.31022 448.02 12.7402 516.75 6.26021C538.99 4.16021 566.54 8.87023 582.11 24.3902C586.65 28.9202 614.92 75.7302 616.33 80.7802C624.56 110.42 624.93 149 619.58 179.15C605.19 260.28 613.39 336.46 610.37 419.09C608.66 465.82 605.63 520.92 596.46 567.97C591.86 591.56 581.36 599.41 555.26 602.81C509.74 608.73 445.36 589.27 404.33 591.56C397.4 591.95 388.64 598.41 380.28 599.82C370.17 601.52 167.86 590.97 156.49 591.67C141.88 592.57 124.31 586.02 106.83 588.26C92.62 590.08 78.85 596.04 61.23 594.35C44.35 592.72 46.39 586.91 37.69 579.34C-24.42 525.29 8.80003 470.86 11.63 403.32C13.34 362.54 8.32003 321.71 12.88 279.77C14.41 265.75 21.68 250.32 22.94 234.52C29.78 149 -13.32 116.4 51.37 41.2002V41.1802ZM472.79 71.6702C460.32 59.8702 429.27 55.7502 410.92 56.3702C395.98 56.8802 372.62 67.7602 357.09 69.4402C324.22 72.9902 283.58 69.5502 250.67 73.1802C238.21 74.5602 219.6 82.8702 203.98 83.0102C180.07 83.2202 121.19 67.5602 102.67 74.7402C83.15 82.3102 83.6 131.86 78.8 151.48C75.99 162.96 79.8 190.51 78.46 199.67C71.08 250.3 78.98 280.41 79.87 328.89C80.71 374.13 63.57 417.91 67.24 463.14C67.81 470.11 65.65 503.14 74.01 510.87C80.72 517.07 140.59 517.5 156.99 519.79C205.55 526.57 232.48 534.83 282.86 532.45C324.21 530.49 373.33 527.48 410.82 535.62C410.82 535.62 502.83 552.55 525.98 541.65C550.82 529.96 552.5 489.04 555.14 463.39C557.95 436.08 549.48 404.49 551.28 377.77C556.02 307.4 577.38 206.59 565.64 137.45C564.8 132.53 539.16 99.5302 535.97 97.7102C517.01 86.8602 493.63 98.7302 522.04 137.54C534.78 154.94 507.13 181.48 501.75 186.71C489.88 198.25 443.34 196.46 429.37 188.49C423.28 185.02 408.17 159.33 406.9 152.15C404.5 138.6 414.3 109.08 426.93 101.06C442.08 91.4302 495.71 93.3502 472.8 71.6702H472.79Z" fill="black"/>
<path d="M244.6 230.68C250.94 225.94 258.67 230.92 266.76 228.62C277.16 225.66 286.74 214.81 302.16 212.43C343.43 206.04 386.98 221.72 415.27 249.55C447.26 281.02 444.14 358.82 415.22 391.67C406.43 401.65 372.63 423.38 359.23 425.36C348.14 427 296.37 418.62 285.2 414.15C263.76 405.56 232.27 380.42 220.38 361.6C208.01 342.02 198.87 304.96 208.8 284.19C211.34 278.88 241.94 232.68 244.6 230.7V230.68Z" fill="black"/>
</svg>
