<svg width="455" height="674" viewBox="0 0 455 674" fill="none" xmlns="http://www.w3.org/2000/svg">
<path d="M233.32 397.33C249.78 395.81 241.1 421.76 242.04 431.51C244.9 461.27 255.18 484 261.4 511.51C268.26 541.89 271.8 573.12 278.78 603.51C283.72 625 305.42 658.86 279.41 673.51L212.84 661.97C186.97 646.72 207.92 621.41 213.19 601.91C221.05 572.78 215.6 531.98 217.04 501.85C218.17 478.22 221.53 451.53 224.94 427.88C226.47 417.28 218.68 398.7 233.33 397.35L233.32 397.33Z" fill="black"/>
<path d="M221.05 241.56C216.94 238.93 213.98 227.92 213.46 223.36C210.66 199.18 218.38 172.54 217.56 150.15C216.92 132.72 211.7 103.18 208.22 85.32C205.87 73.28 189.7 28.86 190.78 21.92C191.84 15.07 199.86 8.64001 207.15 6.21001C213.58 4.07001 245.76 -0.339994 251.55 0.630006C257.34 1.60001 259.95 9.53 261.3 14.17C270.98 47.52 257.38 84.84 252.74 118.49C249.58 141.44 246.29 164.93 243.5 187.78C241.8 201.66 243.94 222.08 241.1 235.21C239.31 243.5 228.49 246.31 221.06 241.56H221.05Z" fill="black"/>
<path d="M389.42 215.48C371.09 229.39 364.98 242.9 347.45 255.68C334.86 264.85 314.6 288.97 299.73 286.35C284.86 283.73 306.74 257.69 314.53 243.32C324.2 225.5 329.04 205.15 341 186.81C348.2 175.77 359.08 165.93 366.39 155.11C375.02 142.34 377.9 120.2 399.78 118.79C403.35 118.56 415.42 120.12 418.02 122.05C424.6 126.95 424.8 135.36 428.3 143.84C429.67 147.17 430.26 163.73 429.97 168.73C429.62 174.71 429.69 187.25 424.79 191.35C413.39 200.87 400.84 206.83 389.43 215.48H389.42Z" fill="black"/>
<path d="M81.14 519.92C77.42 516.77 74.54 510.82 71.51 506.96C69.32 504.17 64.96 498.95 63.74 496.48C60.71 490.38 60.05 486.56 57.96 479.85C56.22 474.26 51.12 469.31 49.86 463.04C47.72 452.44 48.73 437.81 61.02 431.97C79.95 422.98 106.79 416.11 125.45 405.99C140 398.11 154.53 378.6 173.27 377.45C180.1 377.03 189.08 381.24 187.11 387.34C185.35 392.8 170.99 411.23 166.77 419.61C156.15 440.66 146.07 459.52 131.86 479.19C127.23 485.59 121.55 490.39 116.31 498.13C112.93 503.13 110.6 509.64 104.83 514.36C96.99 520.78 90.21 527.6 81.14 519.91V519.92Z" fill="black"/>
<path d="M171.69 585.19C165.68 580.68 162.97 568.99 158.07 562.86C148.8 551.25 133.41 550.08 128.17 536.01C124.23 525.43 134.63 518.31 139.26 509.81C150.16 489.82 164.03 470.1 173.59 450.25C181.65 433.5 194.54 403.16 206.1 410.95C213.41 415.88 211.52 442.42 207.68 460.26C204.2 476.42 198.24 490.96 196.38 508.32C194.45 526.38 196.7 547.7 193.73 565.18C192.38 573.13 180.51 591.82 171.68 585.2L171.69 585.19Z" fill="black"/>
<path d="M281.76 479.99C284.16 480.61 297.68 497.46 299.39 499.77C311.09 515.6 316.79 532.96 324.45 549.64C328.73 558.96 342.77 571.39 351.51 577.33C358.76 582.26 373.76 581.75 369.21 596.15C367.7 600.94 349.23 630.6 345.13 636.26C329.74 657.5 320.98 649.5 312.36 629.63C297.05 594.36 289.5 560.34 279.02 524.27C276.19 514.53 258.9 487.21 273.79 480.54C276.03 479.54 279.26 479.35 281.76 480V479.99Z" fill="black"/>
<path d="M407.76 413.47C414.62 415.74 435.65 431.01 436.52 437.83C437.25 443.55 433.79 473.72 431.51 478.65C429.36 483.28 424.38 487.35 418.39 487.81C405.11 488.83 392.33 465.78 384.4 459.22C358.81 438.05 335.63 425.31 314.98 400.26C309.9 394.09 293.87 384.24 304.72 380.46C316.45 376.37 327.7 387.19 334.45 389.36C338.8 390.76 343.39 389.94 347.32 391.2C365.39 396.99 404.48 412.38 407.76 413.47Z" fill="black"/>
<path d="M156.73 71.95C169.05 70.4 182.83 98.32 185.89 107.25C196.06 136.88 188.59 171.27 193.43 202.15C195.26 213.84 199.09 232.82 202.63 243.99C203.53 246.84 206.89 259.09 204.8 261.44C196.39 270.88 172.8 236.09 164.56 221.14C161.02 214.72 153.53 210.46 151.62 201.53C150.25 195.11 152.91 192.17 152.47 187.54C150.98 172.05 138.95 161.9 132.67 149.32C129.78 143.52 125.03 121.7 124.14 114.89C122.5 102.32 144.64 73.47 156.73 71.94V71.95Z" fill="black"/>
<path d="M155.53 319.91C149.81 327.46 139.05 328.09 129.01 328.01C122 327.95 118.13 323.58 112.28 322.51C103.99 320.99 70.62 315.54 64.36 315.93C48.45 316.92 38.76 327.74 15.98 325.84C4.51999 324.88 -0.150004 309.9 0.919996 301.41C1.48 296.99 12.75 265.85 15.12 262.03C24.33 247.18 35.36 256.7 47.65 259.26C76.69 265.33 71.19 267.25 94 278.78C117.23 290.53 162.54 310.66 155.54 319.9L155.53 319.91Z" fill="black"/>
<path d="M352.03 103.61C356.32 111.71 336.09 143.74 331.68 152.4C320.8 173.75 309.46 196.53 298.25 218.79C292 231.21 289.93 255.52 271.54 259.38C249.25 264.05 256.82 246.16 257.1 236.99C257.99 208.32 267.09 197.36 270.4 173.17C272.34 158.93 270.52 114.95 286.87 105.83C305.8 95.26 343.76 88 352.03 103.61Z" fill="black"/>
<path d="M287.09 409.38C297.21 415.7 310.05 419.33 317.02 428.31C327.37 441.65 323.83 439.66 337.97 451.64C343.97 456.73 349.87 458.57 354.75 466.15C364.93 481.95 365.2 504.82 360.91 523.34C360.51 525.06 354.62 535.97 353.89 536.32C341.61 542.28 335.03 523.46 330.79 517.78C311.18 491.48 304.99 481.04 290.32 452.7C284.2 440.87 268.03 422.04 269.49 410.09C269.77 407.75 269.41 404.34 271.93 402.93C280.54 400.12 283.76 407.3 287.09 409.38Z" fill="black"/>
<path d="M70.9598 176.31C72.3298 177.26 74.4498 180.44 76.5098 181.9C99.0899 197.89 101.83 215.14 118.65 233.93C128.71 245.16 144.11 258.18 155.52 269.68C161.42 275.63 170.79 282.22 162.56 287.51C156.26 291.56 140.77 279.54 131 274.83C112.44 265.89 88.4398 253.56 69.8498 246.04C59.2798 241.77 40.4098 235.66 36.3498 228.58C31.7898 220.62 41.7998 190.38 43.6498 179.61C48.7398 172.71 63.8998 171.44 70.9598 176.33V176.31Z" fill="black"/>
<path d="M435 238.13C436.64 238.89 453.7 258.57 454.06 260.15C455.62 266.9 448.97 276.99 442.83 281.2C433.37 287.69 422.55 290.91 412.19 292.77C395.41 295.79 375.33 301.21 359.86 307.38C349.79 311.4 334.95 327.12 323.34 322.96C302.27 315.41 323.31 296.31 335.34 290.24C355.72 279.94 358.57 278.3 377.19 266C388 258.85 421.59 231.93 435.01 238.14L435 238.13Z" fill="black"/>
<path d="M173.86 342.99C181.84 360.08 148.5 367.34 134.65 375.74C122.11 383.35 98.1399 402.53 82.3199 402.28C75.1699 402.17 59.9299 399.35 56.9499 393.4C52.0999 383.73 48.7399 349.58 61.5999 343.63C73.0499 338.33 75.3399 344.49 81.1999 345.03C104.26 347.18 123.96 339.94 141.49 341.01C148.26 341.43 170.02 334.73 173.87 342.97L173.86 342.99Z" fill="black"/>
<path d="M390.54 323.44C405.44 323.1 433.8 314.6 436.89 325.14C437.62 327.62 436.06 346.95 436.87 349.46C439.78 358.4 438.76 371.11 428.7 382.91C421.24 391.65 388.98 375.27 378.56 371.91C371.75 369.71 367.18 364.21 359.16 363.38C354.1 362.85 349.44 364.92 344.31 364.51C330.79 363.44 307.39 362.72 306.51 349.04C306.51 345.6 319.66 340.85 322.01 340.43C334.43 338.21 380.34 323.68 390.54 323.45V323.44Z" fill="black"/>
<path d="M83.2999 120.53C109 115.4 109.64 148.27 117.72 163.45C126.69 180.29 143.32 213.04 133.62 217.1C125.7 220.41 116.74 200.73 110.41 193.46C103.84 185.93 86.9099 171.68 82.9799 165.48C80.7899 162.02 81.4899 156.73 78.1799 153.76C75.3899 151.25 68.7599 151.46 66.5999 147.86C60.6999 138.01 71.5399 122.87 83.2999 120.53Z" fill="black"/>
<path d="M274.42 353.79C274.51 353.7 274.59 353.62 274.68 353.53C276.39 351.82 278.06 349.85 278.61 347.35C279.01 345.55 282.74 326.51 281.1 319.46C280.03 314.85 278.95 310.2 276.94 306.01C275.07 302.12 272.46 298.74 269.71 295.59C267.18 292.69 264.46 289.9 261.25 288.03C255.55 284.72 247.28 282.66 240.87 282.62C238.02 282.6 225.65 285.41 222.36 286.32C218.02 287.52 215.44 289.57 211.1 290.79C203.68 292.87 198.93 297.6 194.47 304.59C192.18 308.04 191.74 312.87 191.76 317.18C191.78 322.56 190.93 328.62 190.73 333.99C190.51 339.96 194.52 344.88 197.66 349.69C202.43 357 218.76 373.37 223.6 373.2C229.73 372.98 241.29 373.99 247.34 372.9C250.98 372.25 254.35 370.44 257.67 368.64C265.99 364.15 267.5 360.63 274.43 353.78L274.42 353.79Z" fill="black"/>
</svg>
