<svg width="663" height="629" viewBox="0 0 663 629" fill="none" xmlns="http://www.w3.org/2000/svg">
<path d="M52.9399 598.81C49.1699 596.06 41.5299 596.93 37.2099 592.25C23.4199 577.31 5.02989 507.04 1.83989 483.22C-2.46011 451.15 7.25989 401.54 4.08989 367.24C1.09989 334.88 12.5499 280.23 8.2099 249.56C6.8499 239.97 3.23989 194.7 4.26989 184.52C8.24989 145.27 -8.5201 129.31 13.3499 82.5601C30.9899 44.8401 72.9099 33.5601 115.72 31.7601C194.06 28.4701 275.4 21.4501 353.61 26.5601C367.58 27.4701 386.69 34.3601 399.44 33.8401C404.17 33.6501 457.59 20.3501 469.79 17.8601C507.49 10.1601 550.12 -7.32994 586.9 4.81007C637.31 21.4501 630.38 91.9901 636.89 130.69C653.57 229.85 665.94 304.51 661.36 405.29C660.77 418.36 653.32 434.53 653.1 447.24C652.18 501.09 679.37 549.46 630.14 597.7C589.41 637.61 522.28 623.49 466.56 624.11C455.65 624.23 445.38 628.11 433.43 628.26C390.47 628.8 352.04 618.82 311.8 618.81C282.56 618.8 250.46 630.24 223.88 628.15C190.6 625.53 149.6 616.45 114.92 612.91C99.3699 611.33 71.4199 616.86 60.1499 609.26C57.0599 607.18 56.2599 601.25 52.9399 598.82V598.81ZM324.4 320.34C375.25 359.22 416.35 267.32 433.51 245.27C444.42 231.24 487.45 197.11 500.89 182.46C527.56 153.41 555.82 95.1501 497.14 89.0701C415.72 80.6401 281.48 87.9601 199.36 83.9401C163.4 82.1801 106 52.5601 121.61 105.65C123.29 111.35 153.27 155.08 157.97 159.65C198.24 198.72 255.28 235.37 295.26 278.94C304.63 289.15 316.87 314.6 324.39 320.35L324.4 320.34ZM458.78 294.29C443.41 315.17 391.22 381.65 369.5 397.41C319.59 433.62 317.89 395.68 286.85 367.94C255.12 339.58 253.38 307.69 220.49 280.24C190.93 255.58 123.92 166.84 80.4499 219.61C70.8499 231.26 79.0699 273.74 78.2199 292.85C75.5499 353.28 60.1299 434.67 66.7699 495.34C68.3599 509.88 68.5299 523.79 78.4399 534.91C87.1999 544.74 115.38 554.19 129.2 555.68C156.68 558.65 236.75 551.56 239.82 551.66C311.34 553.84 370.37 543.97 445.09 561.17C466.23 566.04 482.31 557.52 505.57 560.5C513.12 561.47 549.1 561.62 555.1 559.31C603.54 540.65 580.12 462.12 579.15 426.67C577.42 363.39 596.64 281.22 582.68 222.66C578.19 203.8 558.22 201.54 542.69 213.37C533.33 220.5 472.55 275.57 458.78 294.29Z" fill="black"/>
</svg>
