<svg width="500" height="87" viewBox="0 0 500 87" fill="none" xmlns="http://www.w3.org/2000/svg">
<path d="M287.702 3.73755C293.342 3.61755 300.132 3.47754 309.172 4.61754C321.082 6.11754 323.862 8.73755 334.222 9.15755C341.082 9.43755 350.992 8.44755 358.372 8.26755C366.852 8.06755 382.912 5.90755 390.432 6.71755C396.532 7.37755 400.362 9.96754 407.522 9.03754C408.892 8.85754 409.962 7.29754 411.142 7.28754C412.322 7.28754 413.722 9.14754 416.482 9.16754C418.342 9.17754 420.122 8.24755 421.882 8.18755C437.532 7.66755 453.552 2.24754 469.262 0.997545C471.682 0.807545 473.882 -0.232452 476.462 0.0475477C477.642 0.177548 480.662 5.29755 480.662 5.29755C483.502 8.67755 495.802 10.8675 496.562 14.8875C497.362 19.0875 495.592 31.9675 495.592 31.9675C495.992 50.2375 499.242 48.9775 499.222 67.4075C499.222 73.7975 488.782 84.7275 486.262 84.7775C483.842 84.8275 481.652 85.9976 479.122 85.8176C475.682 85.5776 470.962 82.9775 466.592 82.9975C457.622 83.0275 446.952 87.4975 436.152 86.6775C429.992 86.2075 425.402 82.7876 420.092 82.1676C413.512 81.4076 400.572 82.7375 393.272 83.0775C368.162 84.2275 335.752 85.5776 311.082 82.9776C309.532 82.8176 267.502 77.1575 263.532 79.0775C261.552 80.0375 242.742 78.5175 241.782 79.3775C210.182 74.7775 217.952 83.9675 186.352 79.3775C180.212 79.7076 157.192 79.6075 147.982 79.8875C89.8318 81.6875 109.592 76.4875 92.6718 77.0375C84.8818 77.2875 77.0718 78.7775 69.3318 79.5175C64.8518 79.9475 62.2918 78.2976 60.6218 78.0076C56.3318 77.2576 45.2918 75.3175 41.6018 75.5075C37.2818 75.7275 30.4618 80.0875 25.3018 81.0875C20.5318 82.0175 6.06183 83.4275 2.67183 79.7775C1.93183 78.9775 0.321833 75.4775 0.191833 74.3775C-0.928167 65.3475 3.21183 56.6075 3.44183 47.7675C3.72183 36.7075 0.931833 44.0175 2.94183 32.1275C3.90183 26.4675 9.76183 16.3875 15.2518 14.0175C23.1818 10.5975 27.1418 13.3175 34.5318 13.6075C45.0618 14.0275 53.0218 8.88754 64.0318 9.95754C68.6418 10.4075 72.4118 12.9175 76.9318 14.0575C88.1718 16.8775 115.282 18.3275 126.552 16.2075C134.222 14.7675 142.332 11.4875 150.762 10.9075C161.862 10.1475 174.062 14.4575 184.582 14.1275C190.862 13.9275 197.902 11.2375 210.082 11.3775C212.872 11.4075 214.872 11.5476 215.802 11.5976C237.372 12.8476 257.362 4.38754 287.712 3.74754L287.702 3.73755Z" fill="black"/>
</svg>
