<svg width="648" height="621" viewBox="0 0 648 621" fill="none" xmlns="http://www.w3.org/2000/svg">
<path d="M492.33 46.3201C512.23 64.5501 536.98 100.36 535.74 128.82C535.67 130.44 532.27 154.19 531.59 162.11C530.07 179.84 522.13 220.73 516.04 237.48C513.67 244 507.71 251.12 506 258.23C503.79 267.4 505.98 294.01 514.77 295.99C516.45 296.37 518.79 294.95 520.78 295.47C527 297.09 563.32 325.42 567.03 331.97C570.42 337.95 573.27 349.54 574.6 356.47C576.43 366.04 588.27 384.5 590.98 392.56C592.5 397.09 605.74 409.47 609.4 414.78C629.44 443.9 620.43 463.78 636.04 493.96C642.16 505.8 648.61 536.77 647.48 550.27C645.51 573.78 625.14 605.65 609.36 610.59C545.6 630.56 474.96 616.66 409.3 609.83C363.45 605.06 335.25 611.77 290.96 613.47C257.05 614.77 191.43 604.33 191.43 604.33C150.29 597.92 105.21 610.74 63.34 614.08C50.14 615.13 47.02 611.94 36.51 610.57C31.99 609.98 11.14 598.1 10.07 596.78C9.13998 595.64 1.20997 582.94 0.939972 582.12C0.0399721 579.35 1.79997 551.52 2.54997 548.32C3.00997 546.4 15.15 531.7 17.78 527.06C39.98 487.77 73.4 448.37 95.73 409.64C110.05 384.81 157.8 328.84 183.43 314.32C195.57 307.44 238.91 289.59 243.48 277.63C247.47 267.19 239.61 262.45 235.84 254.54C198.42 176.18 212.78 94.7801 273.6 33.0001C290.15 16.1901 321.36 3.54011 344.71 0.980106C384.13 -3.33989 462.78 19.2501 492.33 46.3301V46.3201ZM454.72 274.77C467.1 262.78 485.14 218.13 488.43 200.72C491.91 182.29 486.32 143.77 482.17 125.2C480.21 116.43 470.52 81.5201 467.05 75.4001C464.36 70.6701 455.89 65.6601 450.86 63.5101C415.49 48.3701 379.99 45.7501 341.51 48.8701C320.22 50.6001 299.85 70.2901 286.38 86.0701C259.05 118.09 250.55 153.17 258.26 193.75C261.4 210.28 266.1 227.38 269.52 244.14C271.59 254.26 270.02 249.08 270.13 257.43C270.5 287.31 284.33 287.06 305.32 298.48C311.46 301.82 333.19 306.26 328.98 313.39C325.75 318.86 293.46 313.32 279.34 315.76C268.5 317.64 258.39 320.09 246.47 323.85C235.08 327.44 218.89 331.6 209.69 337.15C185.57 351.68 157.99 405.39 141.78 427.3C122.69 453.11 102.25 489.73 85.48 515.82C78.84 526.15 82.77 522.83 85.42 531.85C86.29 534.81 85.09 539.42 86.59 541.68C87.09 542.44 101.88 550.22 102.79 550.2C108.96 550.12 120.12 542.59 127.05 541.19C147.06 537.15 179 552.22 200.48 556C245.61 563.93 275.91 545.97 318.77 547.97C326.56 548.33 337.92 552.68 345.72 553.55C378.43 557.23 411.6 557.1 444.34 560.04C483.27 563.54 518.03 572.67 558.63 564.83C567.65 563.09 575.06 553.22 572.99 544.12C572.99 544.12 567.91 512.28 565.99 497.06C563.23 475.23 570.48 451.81 554.48 430.98C550.39 425.66 543.52 424.24 538.21 417.14C532.78 409.87 508.37 369.95 507.14 363.32C504.82 350.84 509.86 340.33 497.2 332C484.64 323.74 467.58 326.55 453.5 323.31C444.72 321.29 438.81 315.32 429.52 317.28C415.97 320.14 406.6 335.26 392.29 322.11C389.06 310.85 413.34 292.53 422.39 288.31C431.13 284.24 447.48 281.79 454.72 274.78V274.77Z" fill="black"/>
</svg>
