<svg width="914" height="746" viewBox="0 0 914 746" fill="none" xmlns="http://www.w3.org/2000/svg">
<path d="M354.3 621.32C354.89 621.65 363.37 629.12 364.21 630.08C379.94 648.06 381.02 687.78 372.19 709.15C352.24 757.48 280.84 759.02 262.06 706.2C253.03 680.79 259.41 632.84 285.76 619.49C287.89 618.41 306.98 613.71 310.38 613.21C316.22 612.35 332.15 611.79 337.57 612.82C342.46 613.75 343.54 618.72 346.59 620.09C349.23 621.27 352.49 620.3 354.3 621.33V621.32ZM674.9 700.49L670.19 700.59L670.98 703.55C672.64 701.9 674.43 701.68 673.42 704.61C663.91 732.29 618.08 743.59 593.37 731.04C586.82 727.71 567.2 710.4 565.2 703.92C563.61 698.75 563.89 681.37 564.42 675.32C566.09 655.98 577.73 646.75 583.87 629.73C586.74 626.06 617.87 617.83 623.79 617.59C640.45 616.92 658.44 628.81 666.64 643.16C677.05 661.37 675.47 680.25 674.89 700.5L674.9 700.49ZM682.35 497.84C679.72 498.25 676 498.62 671.69 497.75C669.61 497.33 667.79 496.79 666.09 496.08C662.19 495.47 659.13 494.12 656.96 492.91C643.2 490.46 638.9 479.52 637.86 475.96L636.93 472.79L637.1 464.72C637.2 459.13 637.3 453.36 637.72 447.55C637.99 443.86 638.45 440.73 638.85 437.96C639.54 433.22 639.83 430.99 639.39 427.87C636.69 408.78 634.85 387.56 633.6 361.08C633.43 357.43 633.2 350.45 633.63 344.65C634.06 339 635.54 334.34 636.62 330.94C637.04 329.61 637.62 327.79 637.68 327.18C637.89 323.58 637.76 319.26 637.62 314.68C637.44 308.67 637.24 302.45 637.74 296.07C638.13 291 639.22 285.59 640.27 280.37C640.8 277.72 641.58 273.84 641.98 270.99C641.28 270.39 640.46 269.78 639.73 269.34C638.12 269.43 635.59 269.77 633.94 269.99C631.19 270.35 628.35 270.73 625.49 270.85C610.89 271.46 596.01 271.68 581.62 271.9C570.15 272.07 558.28 272.25 546.81 272.63C543.44 272.74 539.66 273.24 535.65 273.76C532.77 274.14 529.89 274.51 527.03 274.78C520.05 275.45 514.8 273.86 512.18 272.97C506.83 272.05 503.79 271.61 502.06 271.4C501.6 271.6 501.14 271.81 500.66 272.01C497.53 273.36 493.64 275.04 489.23 275.9C478.77 277.95 459.62 279.68 449.05 268.3C445.37 264.33 441.96 256.99 441.28 251.57C440.25 243.27 441.76 236.21 442.98 230.54C443.49 228.16 444.02 225.7 444.06 224.29C444.06 224.17 444.06 224.06 444.06 223.95C443.74 222.91 443.58 221.91 443.4 220.91C401.19 219.73 360.01 210.29 318.03 211.07C292.72 211.54 267.12 221.37 241.76 217.54C236.66 216.77 224.95 210.85 221.27 207.13C220.13 205.97 208.38 189.65 207.63 188.25C199.27 172.69 211.87 147.86 202.88 138.53C199.72 135.25 182.9 127.13 178.27 126.55C155.94 123.75 140.54 139.8 118.06 139.72C105.33 139.68 88.1898 132.06 74.1198 131.48C64.7798 131.1 47.5298 130.98 38.4098 131.47C23.5198 132.26 6.85977 142.05 1.41977 156.3C-4.07023 170.68 11.0798 197.96 26.0998 202.27C53.8898 210.24 63.2298 199.96 85.6098 199.71C91.4298 199.64 104.64 202.3 111.06 203.5C116.07 204.43 140.21 209.43 142.89 210.69C147.47 212.85 150.51 220.42 153.06 223.22C154.97 225.31 159.47 226.24 160.67 227.87C163.48 231.7 164.6 247.66 166.47 253.78C168.95 261.89 173.59 267.8 175.36 277.41C176.72 284.8 176.05 298.74 178.1 305.43C182.81 320.77 197.96 336.79 203.73 351.49C208.95 364.8 208.01 380.7 212 393.63C214.16 400.62 220.09 406.83 222.57 412.33C228.66 425.85 230.98 447.46 232.68 462.38C236.18 493.12 239.04 524.55 243.96 555.17C246.23 569.32 242.69 574.48 258.31 583.1C292.4 601.92 329.38 582.96 366.94 585.06C441 589.21 515.95 590.93 589.55 599.89C608.29 602.17 624.33 606.75 644.51 604.16C670.57 600.81 681.34 585.88 686.01 561.11C689.96 540.12 690.46 521.05 691.5 500.86C687.81 500.2 684.71 498.91 682.35 497.83V497.84ZM704.87 0.390015C700.74 0.480015 694.24 2.87002 689.46 2.91002C686.18 2.93002 682.8 1.51002 679.78 2.07002C675.57 2.85002 668.62 7.63002 664.98 8.33002C658.54 9.58002 673.89 6.91001 669.24 7.90001C668.72 8.01001 660.13 11.5 659.44 11.86C654.22 14.57 656.24 19.91 655.69 24.3C653.58 41.06 653.96 44.1 657.95 60.11C660.16 68.99 657.31 75.99 657.25 84.22C657.22 89.33 659.02 96.97 658.97 102.07C658.92 107.29 657.05 113.76 657.28 119.05C657.52 124.48 660.69 127.85 661.3 132.05C662.17 138.09 660.11 145.6 660.56 150.53C660.81 153.27 663.44 154.02 663.84 157.03C664.92 165.14 658.49 172.73 658.97 178.12C659.45 183.48 666.47 190.6 657.51 192.13C655.49 192.47 653.76 191.71 652.33 191.93C644.75 193.14 636.94 194.18 629.26 194.42C619.74 194.72 608.7 190.81 598.65 191.5C591.03 192.02 583.68 194.99 576.74 196.3C566.54 198.22 542.01 196.91 531.83 194.36C527.75 193.33 524.33 191.06 520.16 190.65C510.2 189.68 502.99 194.33 493.46 193.95C486.78 193.68 483.19 191.22 476.01 194.32C471.04 196.46 465.74 205.58 464.87 210.71C463.05 221.47 465.57 214.86 465.32 224.86C465.12 232.86 461.37 240.77 462.38 248.94C462.5 249.94 463.96 253.11 464.63 253.83C467.69 257.13 480.79 255.86 485.11 255.01C489.78 254.1 495.95 250.16 499.86 249.96C503.19 249.79 513.19 251.55 517.07 252.23C518.58 252.49 520.9 253.99 524.96 253.6C531.96 252.93 539.03 251.59 546.08 251.36C572.1 250.51 598.63 250.68 624.56 249.59C630.56 249.34 640.17 246.89 645.61 248.7C652.41 250.97 663.12 259.44 663.47 267.09C663.84 275.22 659.62 288.82 658.93 297.73C658.16 307.66 659.47 318.8 658.9 328.47C658.53 334.71 655.31 339.87 654.83 346.26C654.52 350.33 654.63 355.96 654.83 360.09C655.86 381.78 657.42 403.55 660.43 424.91C661.75 434.29 659.56 440.25 658.91 449.11C658.41 455.93 658.41 463.13 658.26 469.99C659.12 472.93 662.12 471.68 663.96 472.39C665.74 473.08 667.2 474.76 669.39 475.06C675.33 475.89 672.39 476.19 675.87 476.89C678.54 477.43 681.84 475.76 685.33 476.27C688.55 476.74 693.02 479.95 696.04 480.01C698.61 480.06 701.14 477.61 703.73 476.77C707.78 475.45 711.84 474.03 715.87 472.72C723.97 470.08 726.37 473.03 729.73 462.3C735.51 443.86 730.98 437.93 728.34 421.27C726.55 409.96 727.41 393.11 727.08 381.07C726.9 374.38 724.97 362.95 727.59 356.57C728.01 355.55 728.63 353.29 728.73 352.05C730.51 330.59 727.69 310.36 727.08 288.78C726.81 279.41 724.04 269.09 731.38 261.18C732.38 260.11 734.5 259.4 735.37 258.5C736.22 257.61 741.85 256.56 743.72 256.76C766.04 259.12 795.38 257.9 818.1 256.85C824.71 256.55 836.42 255.34 842.37 256.03C847.18 256.59 851.33 259.69 856.91 260.11C866.69 260.85 876.34 256.81 884.46 256.78C888.42 256.77 892.68 259.12 895.8 259.33C898.09 259.49 900.07 258.43 902.26 258.39C904.54 258.34 913.99 248.45 913.99 242.67C914 225.99 911.07 227.14 910.7 210.6C910.7 210.6 912.3 198.94 911.58 195.14C910.89 191.5 899.76 189.52 897.19 186.46C897.19 186.46 894.45 181.82 893.39 181.71C891.05 181.46 889.06 182.4 886.87 182.57C872.65 183.71 858.16 188.61 844 189.08C842.4 189.13 840.79 189.98 839.11 189.97C836.61 189.95 835.34 188.27 834.28 188.27C833.22 188.27 832.25 189.69 831.01 189.85C824.53 190.69 821.07 188.35 815.55 187.75C808.75 187.01 794.21 188.97 786.54 189.15C779.86 189.31 770.9 190.2 764.69 189.95C757.11 189.64 749.67 186.12 742.02 185.84C735.52 185.6 728.37 188.39 722.59 185.04C722.09 179.13 720.44 173.58 720.55 167.57C720.7 159.58 722.79 152.07 723.45 144.43C723.55 143.32 724.56 142.17 724.55 140.88C724.53 138.49 720.79 131.63 720.65 127.87C720.54 124.93 722.11 120.76 722.13 117.49C722.18 112.51 719.45 106.41 719.26 101.36C718.94 92.45 722.98 77.88 724.4 68.62C726.57 54.42 724.42 51.86 723.01 38.88C722.44 33.6 722.53 8.25002 720.34 6.32002C719.83 5.87002 718.6 6.06002 717.42 4.82002C716.68 4.04002 716 1.68001 715.56 1.42001C715.12 1.16001 706.04 0.380019 704.83 0.410019L704.87 0.390015Z" fill="black"/>
</svg>
