<svg width="358" height="222" viewBox="0 0 358 222" fill="none" xmlns="http://www.w3.org/2000/svg">
<path d="M356.98 57.75C355.31 59.5 354.59 61.87 352.67 63.53C350.07 65.8 344.89 67.29 341.82 70.4C335.5 76.76 331.11 87.47 322.89 94.53C318.21 98.55 312.54 99.38 308.35 102.69C303.16 106.81 294.95 116.9 290.03 122.3C273.09 140.87 251.12 164.74 231.84 180.35C230.62 181.34 196.91 207.05 195.45 211.22C195.12 212.16 191.91 215.25 188.54 218.44C183.82 222.89 176.42 222.78 171.83 218.19L141.18 187.4L140.29 186.44C140.08 186.24 139.88 186.03 139.67 185.81C137.37 183.46 134.76 180.44 131.65 176.37C131.4 176.05 131.14 175.72 130.89 175.38C130.45 174.8 127.37 170.96 126.83 170.47C121.42 165.44 109.1 153.71 102.73 147.72C60.34 107.87 77.98 118.18 65.63 106.59C59.95 101.26 53.37 96.79 47.37 91.84C43.9 88.98 43.26 86 42.28 84.62C39.78 81.05 33.35 71.88 30.6 69.4C27.39 66.5 19.49 64.76 15.13 61.82C11.1 59.11 -0.13001 49.87 0.0499905 44.89C0.0999905 43.8 1.42999 40.19 2.11999 39.32C7.70999 32.14 16.82 28.89 23.23 22.8C31.25 15.18 24.11 18.38 33.94 11.39C38.62 8.06998 49.89 5.07998 55.45 7.28998C63.48 10.48 64.35 15.2 69.37 20.63C76.52 28.37 85.78 30.37 92.81 38.91C95.75 42.49 96.65 46.93 99.04 50.93C104.99 60.87 123.13 81.07 132.6 87.54C139.04 91.94 147.1 95.36 153.47 100.91C161.69 108.07 167.2 119.42 174.64 126.64C174.79 126.52 174.93 126.4 175.08 126.29C184.56 118.93 188.37 118.82 196 111.79C201.05 107.13 207.36 99.43 212.45 94.08C214.81 91.61 217.81 88.05 220.93 84.36C225.58 78.89 230.5 73.15 234.03 70.31C238.81 66.47 243.34 65.59 247.75 59.87C248.59 58.77 248.25 56.91 249.07 56.07C249.91 55.24 252.21 55.56 254.18 53.63C255.5 52.32 256.1 50.4 257.3 49.11C268 37.68 275.5 22.52 285.72 10.53C287.3 8.67998 288.12 6.38998 290.14 4.75998C290.7 4.30998 293.02 4.67998 294.77 5.03998C296.96 5.48998 299.23 5.29998 301.33 4.52998C306.18 2.74998 312.37 -0.650014 314.85 1.04999C317.82 3.06999 323.86 10.73 325.7 13.1C326.07 13.58 326.48 14.04 326.92 14.46C339.49 26.33 341.08 23.49 353.87 36.3C358.38 40.82 358.73 55.93 356.98 57.75Z" fill="black"/>
</svg>
