<svg width="758" height="621" viewBox="0 0 758 621" fill="none" xmlns="http://www.w3.org/2000/svg">
<path d="M203.31 12.7601C212.32 22.1101 199.69 46.98 208.07 62.58C208.82 63.98 220.59 80.34 221.74 81.5001C225.42 85.2201 237.16 91.16 242.27 91.93C267.68 95.77 293.32 85.9201 318.68 85.4501C363.42 84.6201 407.25 95.37 452.37 95.43C545.27 95.56 645.69 72.1501 737.52 82.2501C747.04 83.3001 751.2 85.89 754.16 94.93C765.39 129.17 748.16 197.11 731.34 229.22C707.85 274.06 706.32 291.88 699.05 341.93C697.83 350.34 693.93 357.83 693.37 366.93C691.9 390.52 691.9 412.07 687.37 436.14C682.7 460.96 671.91 475.92 645.8 479.28C625.59 481.88 609.52 477.29 590.74 475.01C517.01 466.03 441.91 464.31 367.71 460.15C330.08 458.04 293.03 477.04 258.88 458.18C243.23 449.54 246.78 444.38 244.5 430.2C239.57 399.52 236.71 368.03 233.2 337.23C231.5 322.27 229.17 300.63 223.07 287.08C220.59 281.57 214.64 275.34 212.48 268.34C208.48 255.38 209.42 239.45 204.19 226.12C198.41 211.39 183.23 195.34 178.51 179.97C176.45 173.27 177.14 159.3 175.77 151.9C173.99 142.28 169.35 136.36 166.86 128.23C164.98 122.1 163.87 106.1 161.05 102.27C159.85 100.64 155.34 99.7 153.43 97.61C150.87 94.81 147.83 87.2201 143.24 85.0601C140.56 83.8 116.36 78.7901 111.35 77.8501C104.91 76.6501 91.68 73.9901 85.85 74.0601C63.43 74.3101 54.07 84.6101 26.23 76.6301C11.18 72.3101 -4 44.99 1.5 30.58C6.95 16.3 23.64 6.49007 38.56 5.70007C47.7 5.21006 64.99 5.33004 74.34 5.71004C88.44 6.29004 105.61 13.92 118.36 13.96C140.88 14.04 156.31 -2.03994 178.68 0.760063C183.31 1.34006 200.17 9.48006 203.33 12.7601H203.31ZM394.8 116.89C389.46 116.74 384.56 114.27 378.71 114.98C376.03 115.3 374.47 120.87 369.04 121.87C358.37 123.84 343.46 124.26 332.1 125.37C309.18 127.62 286.88 130.79 263.98 132.98C259.29 133.43 253.9 131.28 248.52 132.33C245.46 132.93 236.72 139.76 235.61 142.56C234.91 144.34 231.99 161.17 231.71 164.16C230.24 180.04 240.61 206.2 244.03 222.68C248.29 243.21 252.98 264.19 256.97 284.48C259.48 297.25 257.76 315.74 260.63 328.44C261.92 334.17 266.72 339.79 268.64 345.62C276.16 368.42 269.5 379.17 291.18 397.04C311.65 413.91 325.28 411.04 348.07 415.29C379 421.06 406.6 427.22 438.17 430.72C459.6 433.09 494.47 440.15 515.16 435.36C526.28 432.79 546.67 421.93 555.83 420.41C578.41 416.64 598.15 423.3 619.18 407.34C641.22 390.62 662.18 326.98 669.96 298.56C672.61 288.87 678.95 266.35 679.71 257.48C681.08 241.57 683.12 217.74 685.01 201.02C686.13 191.09 693.18 179.23 693.22 168.49C693.3 148.81 695.73 119.98 677.55 114.84C671.73 113.2 647.05 115.68 642.85 114.73C608.97 107.08 588.31 116.25 552.44 118.45C541.18 119.14 527.79 123.53 517.08 123.66C504.84 123.82 394.78 116.88 394.78 116.88L394.8 116.89Z" fill="black"/>
<path d="M355.02 496.46C355.61 496.8 364.11 504.27 364.95 505.24C380.71 523.25 381.79 563.05 372.95 584.46C352.96 632.88 281.42 634.43 262.61 581.5C253.56 556.04 259.96 508 286.36 494.63C288.49 493.55 307.62 488.84 311.02 488.34C316.87 487.48 332.83 486.92 338.26 487.95C343.15 488.88 344.24 493.86 347.3 495.23C349.94 496.41 353.21 495.44 355.02 496.47V496.46Z" fill="black"/>
<path d="M674.75 579.92C662.13 606.39 619.31 618.97 594.55 606.4C587.98 603.07 568.33 585.72 566.33 579.22C564.73 574.04 565.02 556.62 565.55 550.56C567.23 531.18 573.58 517.47 585.04 504.88C588.18 501.43 619.11 492.95 625.04 492.72C641.73 492.05 659.76 503.97 667.97 518.34C678.4 536.59 679.83 569.29 674.76 579.92H674.75Z" fill="black"/>
</svg>
