<svg width="629" height="628" viewBox="0 0 629 628" fill="none" xmlns="http://www.w3.org/2000/svg">
<path d="M427.06 8.47986C435.93 9.73986 502.48 12.1898 513.48 13.6098C519.37 14.3698 542.91 21.0299 549.81 22.7999C567.02 27.2099 595.85 46.0698 603.61 61.0798C607.45 68.5098 628.65 128.65 628.43 134.18C627.81 149.66 615.02 165.94 622.49 181.56L616.42 175.9C617.2 197.35 620.55 218.25 619.44 239.89C618.21 263.92 609.39 293.22 607.24 316.8C605.9 331.47 610.74 343.1 610.48 356.67C609.6 402.75 589.94 461.24 595.18 504.42C596.52 515.44 603.1 528.93 604.08 541.7C605.91 565.25 602.73 609.86 578.25 622.93C565.65 629.66 517.56 619.47 498.26 619.82C464.55 620.43 443.9 631.31 407.82 624.35C341.87 611.61 300.18 617.54 235.02 622.77C220.83 623.91 192.54 629.04 179.97 627.7C173.65 627.02 125.98 618.68 111.57 616.43C100.95 614.77 62.57 609.46 52.89 608.53C30.12 606.36 18.12 591.33 2.54 578.21C-3.61 542.16 9.87 507.98 13.93 473.01C18.95 429.74 9.77 391.45 11.11 348C13.29 277.66 9.91001 204.57 18.07 134.61C22.03 100.64 10.6 62.4799 32.07 33.7499C40.01 23.1299 73.69 10.9999 87.4 11.1099C95.65 11.1799 121.19 14.8198 134.5 16.3598C161.3 19.4698 227.92 -0.730144 250.81 0.289856C257.17 0.569856 327.01 13.1199 336.51 13.0499C342.48 13.0099 409.78 6.04986 427.08 8.49986L427.06 8.47986ZM346.73 241.78C376.79 236.83 401.54 219.96 397.94 260.59C395.24 291.06 376.81 340.61 335.51 311.35C331 314.71 329.27 320.09 328.3 325.04C317.41 380.74 330.76 448.12 329.49 504.37C329.23 515.77 319.7 547.08 325.72 554.76C337.43 556.23 355.4 570.06 364.55 563.51C367.5 561.4 407.08 551.46 429.78 556.25C447.43 559.97 494.13 562.7 511.51 560.19C536.78 556.55 544.7 511.44 545.63 492.3C547.27 458.26 541.88 429.45 538.98 396.7C532.83 327.27 540.87 255.24 542.36 185.76C542.93 159.42 558.43 142.47 549.58 114.86C533.27 63.9798 470.76 84.6299 428.7 79.3499C410.44 77.0599 362.5 57.7299 348.34 57.7099C338.86 57.6899 328.96 66.4799 319.31 67.8399C291.57 71.7699 247.94 77.2699 220.22 79.6199C187 82.4299 93.39 60.6599 77.6 94.9999C62.57 127.71 91.1 194.1 86.15 234.51C81.32 273.98 66.34 318.88 67 359.08C67.39 383 80.84 408.91 79.94 434.53C79.26 453.83 69.63 467.8 67.25 483.88C66.15 491.35 65.73 533.58 68.46 537.32C84.83 551.48 109.83 536.29 122.28 537.77C141.54 540.06 167.71 559.18 185.33 560.28C190.42 560.6 250.48 554.4 252.42 551.89C256.65 542.4 253.35 531.36 254.56 522.19C261.37 470.38 239.51 401.21 257.88 354.04C259.7 349.36 265.32 347.57 266.62 341.66C269.25 329.74 261.24 316.86 263.56 304.56C249.16 292.33 226.46 306.28 211.79 303.94C199.15 301.92 190.78 297.77 184.9 295.3C181.86 294.02 176.97 293.83 171.21 284.22C168.63 279.92 175.19 248.9 181.87 241.9C200.39 222.5 217.38 240.71 229.64 241.46C236.82 241.9 271.04 232.78 274.67 227.35C278.34 209.43 271.43 192.87 273.11 173.78C274.32 160.02 283.78 123.3 292.3 112.94C305.37 97.0399 321.1 96.3499 341.73 100.07C350.55 101.66 359.03 108.05 367.79 108.38C384.09 108.98 432.17 96.1199 442.1 113.57C448.86 125.44 445.25 160.23 434.94 169.51C416.25 186.32 392.29 155.3 374.42 166.27C363.55 172.94 346.72 190.76 346.72 199.81V241.81L346.73 241.78Z" fill="black"/>
</svg>
