<svg width="500" height="531" viewBox="0 0 500 531" fill="none" xmlns="http://www.w3.org/2000/svg">
<path d="M280.5 1.60002C280.99 1.89002 281.75 4.5 282.56 5.36C283.86 6.73 285.22 6.52 285.79 7.02C288.21 9.15 288.11 37.17 288.74 43C290.3 57.34 292.68 60.17 290.28 75.86C288.72 86.09 284.24 102.19 284.6 112.03C284.8 117.61 287.82 124.35 287.77 129.85C287.74 133.46 286.01 138.06 286.13 141.32C286.28 145.48 290.42 153.06 290.44 155.7C290.45 157.12 289.33 158.39 289.22 159.62C288.49 168.07 286.18 176.37 286.01 185.19C285.88 191.82 287.71 197.96 288.26 204.49C294.65 208.18 302.55 205.11 309.73 205.37C318.19 205.68 326.41 209.57 334.78 209.91C341.64 210.19 351.55 209.2 358.93 209.02C367.41 208.82 383.47 206.66 390.99 207.47C397.09 208.13 400.92 210.72 408.08 209.79C409.45 209.61 410.52 208.05 411.7 208.04C412.88 208.04 414.28 209.9 417.04 209.92C418.9 209.93 420.68 209 422.44 208.94C438.09 208.42 454.11 203 469.82 201.75C472.24 201.56 474.44 200.52 477.02 200.8C478.2 200.93 481.22 206.05 481.22 206.05C484.06 209.43 496.36 211.62 497.12 215.64C497.92 219.84 496.15 232.72 496.15 232.72C496.55 250.99 499.8 249.73 499.78 268.16C499.78 274.55 489.34 285.48 486.82 285.53C484.4 285.58 482.21 286.75 479.68 286.57C476.24 286.33 471.52 283.73 467.15 283.75C458.18 283.78 447.51 288.25 436.71 287.43C430.55 286.96 425.96 283.54 420.65 282.92C414.07 282.16 401.13 283.49 393.83 283.83C368.72 284.98 336.31 286.33 311.64 283.73C309.57 283.51 303.35 284.67 302.41 285.66C301.47 286.65 299.11 287.44 298.01 288.63C289.89 297.38 292.96 308.78 293.26 319.13C293.94 342.97 297.05 365.32 295.08 389.04C294.97 390.41 294.28 392.91 293.82 394.04C290.93 401.08 293.06 413.71 293.26 421.11C293.62 434.42 292.67 453.03 294.65 465.53C297.57 483.95 302.56 490.49 296.18 510.87C292.47 522.73 289.81 519.47 280.86 522.38C276.4 523.83 271.93 525.39 267.45 526.85C264.59 527.78 261.79 530.49 258.95 530.43C255.61 530.36 250.68 526.82 247.11 526.3C243.26 525.74 239.61 527.58 236.66 526.98C232.82 526.21 236.06 525.87 229.5 524.96C227.09 524.62 225.47 522.77 223.5 522.01C221.47 521.22 218.16 522.61 217.21 519.36C217.38 511.79 217.39 503.83 217.93 496.29C218.64 486.5 221.07 479.91 219.6 469.55C216.27 445.94 214.54 421.89 213.41 397.92C213.19 393.36 213.07 387.13 213.41 382.64C213.94 375.58 217.5 369.87 217.9 362.98C218.53 352.3 217.08 339.99 217.93 329.02C218.69 319.18 223.35 304.14 222.94 295.16C222.55 286.71 210.72 277.35 203.2 274.84C197.19 272.83 186.57 275.54 179.94 275.82C151.28 277.02 121.97 276.84 93.2202 277.78C85.4302 278.03 77.6202 279.52 69.8802 280.26C65.4002 280.69 62.8402 279.04 61.1702 278.75C56.8802 278 45.8402 276.06 42.1502 276.25C37.8302 276.47 31.0102 280.83 25.8502 281.83C21.0802 282.76 6.61018 284.17 3.22018 280.52C2.48018 279.72 0.870173 276.22 0.740173 275.12C-0.379827 266.09 3.76017 257.35 3.99017 248.51C4.27017 237.45 1.48017 244.76 3.49017 232.87C4.45017 227.21 10.3102 217.13 15.8002 214.76C23.7302 211.34 27.6902 214.06 35.0802 214.35C45.6102 214.77 53.5702 209.63 64.5802 210.7C69.1902 211.15 72.9602 213.66 77.4802 214.8C88.7202 217.62 115.83 219.07 127.1 216.95C134.77 215.51 142.88 212.23 151.31 211.65C162.41 210.89 174.61 215.2 185.13 214.87C193.62 214.61 202.26 213.46 210.63 212.12C212.21 211.87 214.12 212.72 216.35 212.34C226.25 210.65 218.49 202.79 217.96 196.86C217.43 190.9 224.54 182.53 223.34 173.56C222.9 170.23 220 169.4 219.72 166.37C219.22 160.93 221.49 152.62 220.53 145.95C219.86 141.31 216.36 137.58 216.09 131.58C215.83 125.74 217.9 118.58 217.95 112.82C218.01 107.19 216.01 98.74 216.05 93.1C216.11 84.01 219.27 76.28 216.82 66.46C212.41 48.77 212 45.41 214.32 26.89C214.93 22.04 212.69 16.14 218.46 13.14C219.22 12.74 228.71 8.89 229.29 8.77C234.42 7.68 217.46 10.62 224.58 9.25001C228.6 8.47001 236.29 3.2 240.93 2.33C244.27 1.71 248.01 3.28002 251.63 3.26002C256.9 3.22002 264.09 0.580022 268.65 0.480022C269.98 0.450022 279.99 1.30001 280.5 1.59001V1.60002Z" fill="black"/>
</svg>
