<svg width="825" height="825" viewBox="0 0 825 825" fill="none" xmlns="http://www.w3.org/2000/svg">
<circle cx="412.5" cy="412.5" r="412.5" fill="black"/>
<path d="M400.549 480.837C417.009 479.317 408.329 505.267 409.269 515.017C412.129 544.777 422.409 567.507 428.629 595.017C435.489 625.397 439.029 656.627 446.009 687.017C450.949 708.507 472.649 742.367 446.639 757.017L380.069 745.477C354.199 730.227 375.149 704.917 380.419 685.417C388.279 656.287 382.829 615.487 384.269 585.357C385.399 561.727 388.759 535.037 392.169 511.387C393.699 500.787 385.909 482.207 400.559 480.857L400.549 480.837Z" fill="white"/>
<path d="M388.279 325.067C384.169 322.437 381.209 311.427 380.689 306.867C377.889 282.687 385.609 256.047 384.789 233.657C384.149 216.227 378.929 186.687 375.449 168.827C373.099 156.787 356.929 112.367 358.009 105.427C359.069 98.5774 367.089 92.1474 374.379 89.7174C380.809 87.5774 412.989 83.1674 418.779 84.1374C424.569 85.1074 427.179 93.0374 428.529 97.6774C438.209 131.027 424.609 168.347 419.969 201.997C416.809 224.947 413.519 248.437 410.729 271.287C409.029 285.167 411.169 305.587 408.329 318.717C406.539 327.007 395.719 329.817 388.289 325.067H388.279Z" fill="white"/>
<path d="M556.649 298.987C538.319 312.897 532.209 326.407 514.679 339.187C502.089 348.357 481.829 372.477 466.959 369.857C452.089 367.237 473.969 341.197 481.759 326.827C491.429 309.007 496.269 288.657 508.229 270.317C515.429 259.277 526.309 249.437 533.619 238.617C542.249 225.847 545.129 203.707 567.009 202.297C570.579 202.067 582.649 203.627 585.249 205.557C591.829 210.457 592.029 218.867 595.529 227.347C596.899 230.677 597.489 247.237 597.199 252.237C596.849 258.217 596.919 270.757 592.019 274.857C580.619 284.377 568.069 290.337 556.659 298.987H556.649Z" fill="white"/>
<path d="M248.369 603.428C244.649 600.278 241.769 594.328 238.739 590.468C236.549 587.678 232.189 582.458 230.969 579.988C227.939 573.888 227.279 570.068 225.189 563.358C223.449 557.768 218.349 552.818 217.089 546.548C214.949 535.948 215.959 521.318 228.249 515.478C247.179 506.488 274.019 499.618 292.679 489.498C307.229 481.618 321.759 462.108 340.499 460.958C347.329 460.538 356.309 464.748 354.339 470.848C352.579 476.308 338.219 494.738 333.999 503.118C323.379 524.168 313.299 543.028 299.089 562.698C294.459 569.098 288.779 573.898 283.539 581.638C280.159 586.638 277.829 593.148 272.059 597.868C264.219 604.288 257.439 611.108 248.369 603.418V603.428Z" fill="white"/>
<path d="M338.919 668.697C332.909 664.187 330.199 652.497 325.299 646.367C316.029 634.757 300.639 633.587 295.399 619.517C291.459 608.937 301.859 601.817 306.489 593.317C317.389 573.327 331.259 553.607 340.819 533.757C348.879 517.007 361.769 486.667 373.329 494.457C380.639 499.387 378.749 525.927 374.909 543.767C371.429 559.927 365.469 574.467 363.609 591.827C361.679 609.887 363.929 631.207 360.959 648.687C359.609 656.637 347.739 675.327 338.909 668.707L338.919 668.697Z" fill="white"/>
<path d="M448.989 563.497C451.389 564.117 464.909 580.967 466.619 583.277C478.319 599.107 484.019 616.467 491.679 633.147C495.959 642.467 509.999 654.897 518.739 660.837C525.989 665.767 540.989 665.257 536.439 679.657C534.929 684.447 516.459 714.107 512.359 719.767C496.969 741.007 488.209 733.007 479.589 713.137C464.279 677.867 456.729 643.847 446.249 607.777C443.419 598.037 426.129 570.717 441.019 564.047C443.259 563.047 446.489 562.857 448.989 563.507V563.497Z" fill="white"/>
<path d="M574.989 496.977C581.849 499.247 602.879 514.517 603.749 521.337C604.479 527.057 601.019 557.227 598.739 562.157C596.589 566.787 591.609 570.857 585.619 571.317C572.339 572.337 559.559 549.287 551.629 542.727C526.039 521.557 502.859 508.817 482.209 483.767C477.129 477.597 461.099 467.747 471.949 463.967C483.679 459.877 494.929 470.697 501.679 472.867C506.029 474.267 510.619 473.447 514.549 474.707C532.619 480.497 571.709 495.887 574.989 496.977Z" fill="white"/>
<path d="M323.959 155.457C336.279 153.907 350.059 181.827 353.119 190.757C363.289 220.387 355.819 254.777 360.659 285.657C362.489 297.347 366.319 316.327 369.859 327.497C370.759 330.347 374.119 342.597 372.029 344.947C363.619 354.387 340.029 319.597 331.789 304.647C328.249 298.227 320.759 293.967 318.849 285.037C317.479 278.617 320.139 275.677 319.699 271.047C318.209 255.557 306.179 245.407 299.899 232.827C297.009 227.027 292.259 205.207 291.369 198.397C289.729 185.827 311.869 156.977 323.959 155.447V155.457Z" fill="white"/>
<path d="M322.759 403.417C317.039 410.967 306.279 411.597 296.239 411.517C289.229 411.457 285.359 407.087 279.509 406.017C271.219 404.497 237.849 399.047 231.589 399.437C215.679 400.427 205.989 411.247 183.209 409.347C171.749 408.387 167.079 393.407 168.149 384.917C168.709 380.497 179.979 349.357 182.349 345.537C191.559 330.687 202.589 340.207 214.879 342.767C243.919 348.837 238.419 350.757 261.229 362.287C284.459 374.037 329.769 394.167 322.769 403.407L322.759 403.417Z" fill="white"/>
<path d="M519.259 187.117C523.549 195.217 503.319 227.247 498.909 235.907C488.029 257.257 476.689 280.037 465.479 302.297C459.229 314.717 457.159 339.027 438.769 342.887C416.479 347.557 424.049 329.667 424.329 320.497C425.219 291.827 434.319 280.867 437.629 256.677C439.569 242.437 437.749 198.457 454.099 189.337C473.029 178.767 510.989 171.507 519.259 187.117Z" fill="white"/>
<path d="M454.319 492.887C464.439 499.207 477.279 502.837 484.249 511.817C494.599 525.157 491.059 523.167 505.199 535.147C511.199 540.237 517.099 542.077 521.979 549.657C532.159 565.457 532.429 588.327 528.139 606.847C527.739 608.567 521.849 619.477 521.119 619.827C508.839 625.787 502.259 606.967 498.019 601.287C478.409 574.987 472.219 564.547 457.549 536.207C451.429 524.377 435.259 505.547 436.719 493.597C436.999 491.257 436.639 487.847 439.159 486.437C447.769 483.627 450.989 490.807 454.319 492.887Z" fill="white"/>
<path d="M238.189 259.817C239.559 260.767 241.679 263.947 243.739 265.407C266.319 281.397 269.059 298.647 285.879 317.437C295.939 328.667 311.339 341.687 322.749 353.187C328.649 359.137 338.019 365.728 329.789 371.018C323.489 375.068 307.999 363.047 298.229 358.337C279.669 349.397 255.669 337.068 237.079 329.548C226.509 325.278 207.639 319.167 203.579 312.087C199.019 304.127 209.029 273.887 210.879 263.117C215.969 256.217 231.129 254.947 238.189 259.837V259.817Z" fill="white"/>
<path d="M602.229 321.637C603.869 322.397 620.929 342.077 621.289 343.657C622.849 350.407 616.199 360.497 610.059 364.707C600.599 371.197 589.779 374.417 579.419 376.277C562.639 379.297 542.559 384.717 527.089 390.887C517.019 394.907 502.179 410.627 490.569 406.467C469.499 398.917 490.539 379.817 502.569 373.747C522.949 363.447 525.799 361.807 544.419 349.507C555.229 342.357 588.819 315.437 602.239 321.647L602.229 321.637Z" fill="white"/>
<path d="M341.089 426.497C349.069 443.587 315.729 450.847 301.879 459.247C289.339 466.857 265.369 486.037 249.549 485.787C242.399 485.677 227.159 482.857 224.179 476.907C219.329 467.237 215.969 433.087 228.829 427.137C240.279 421.837 242.569 427.997 248.429 428.537C271.489 430.687 291.189 423.447 308.719 424.517C315.489 424.937 337.249 418.237 341.099 426.477L341.089 426.497Z" fill="white"/>
<path d="M557.769 406.947C572.669 406.607 601.029 398.107 604.119 408.647C604.849 411.127 603.289 430.457 604.099 432.967C607.009 441.907 605.989 454.617 595.929 466.417C588.469 475.157 556.209 458.777 545.789 455.417C538.979 453.217 534.409 447.717 526.389 446.887C521.329 446.357 516.669 448.427 511.539 448.017C498.019 446.947 474.619 446.227 473.739 432.547C473.739 429.107 486.889 424.357 489.239 423.937C501.659 421.717 547.569 407.187 557.769 406.957V406.947Z" fill="white"/>
<path d="M250.529 204.037C276.229 198.907 276.869 231.777 284.949 246.957C293.919 263.797 310.549 296.547 300.849 300.607C292.929 303.917 283.969 284.237 277.639 276.967C271.069 269.437 254.139 255.187 250.209 248.987C248.019 245.527 248.719 240.237 245.409 237.267C242.619 234.757 235.989 234.967 233.829 231.367C227.929 221.517 238.769 206.377 250.529 204.037Z" fill="white"/>
<path d="M441.649 437.298C441.739 437.208 441.819 437.128 441.909 437.038C443.619 435.328 445.289 433.358 445.839 430.858C446.239 429.058 449.969 410.018 448.329 402.968C447.259 398.358 446.179 393.708 444.169 389.518C442.299 385.628 439.689 382.248 436.939 379.098C434.409 376.198 431.689 373.408 428.479 371.538C422.779 368.228 414.509 366.168 408.099 366.128C405.249 366.108 392.879 368.918 389.589 369.828C385.249 371.028 382.669 373.078 378.329 374.298C370.909 376.378 366.159 381.108 361.699 388.098C359.409 391.548 358.969 396.378 358.989 400.688C359.009 406.068 358.159 412.128 357.959 417.498C357.739 423.468 361.749 428.388 364.889 433.198C369.659 440.508 385.989 456.878 390.829 456.708C396.959 456.488 408.519 457.498 414.569 456.408C418.209 455.758 421.579 453.948 424.899 452.148C433.219 447.658 434.729 444.138 441.659 437.288L441.649 437.298Z" fill="white"/>
</svg>
